<svg id="svg" xmlns="http://www.w3.org/2000/svg" xmlns:xlink="http://www.w3.org/1999/xlink" width="400" height="400" viewBox="0, 0, 400,400"><g id="svgg"><path id="path0" d="M83.386 0.468 C 83.138 0.717,81.588 1.032,79.944 1.169 C 72.167 1.818,56.104 7.030,52.046 10.223 C 50.951 11.084,49.891 11.685,49.690 11.558 C 49.126 11.202,41.406 15.873,41.406 16.570 C 41.406 16.910,40.917 17.188,40.318 17.188 C 39.719 17.188,39.027 17.715,38.780 18.359 C 38.533 19.004,37.972 19.531,37.533 19.531 C 36.160 19.531,22.342 31.977,22.993 32.628 C 23.184 32.820,22.484 33.771,21.436 34.742 C 20.388 35.713,19.531 36.917,19.531 37.419 C 19.531 37.920,19.004 38.533,18.359 38.780 C 17.715 39.027,17.188 39.719,17.188 40.318 C 17.188 40.917,16.910 41.406,16.570 41.406 C 15.849 41.406,11.140 49.248,11.719 49.487 C 11.934 49.575,11.333 50.635,10.383 51.842 C 7.250 55.826,2.271 70.481,0.986 79.506 C 0.213 84.930,-0.094 315.730,0.670 316.730 C 1.026 317.196,1.251 318.557,1.169 319.754 C 1.087 320.951,1.302 322.105,1.648 322.318 C 1.993 322.532,2.084 323.206,1.850 323.816 C 1.616 324.426,1.702 325.375,2.042 325.925 C 2.382 326.476,2.709 327.459,2.767 328.111 C 3.003 330.723,4.178 334.949,5.596 338.281 C 8.332 344.711,14.989 357.674,16.299 359.120 C 17.009 359.905,18.245 361.566,19.045 362.811 C 20.907 365.708,32.160 377.475,32.625 377.010 C 32.818 376.817,33.771 377.516,34.742 378.564 C 35.713 379.612,36.917 380.469,37.419 380.469 C 37.920 380.469,38.533 380.996,38.780 381.641 C 39.027 382.285,39.719 382.813,40.318 382.813 C 40.917 382.813,41.406 383.090,41.406 383.430 C 41.406 384.108,49.003 388.731,49.858 388.573 C 50.151 388.519,51.211 389.120,52.214 389.909 C 55.854 392.773,70.880 397.785,79.506 399.014 C 84.544 399.732,315.583 400.122,316.693 399.415 C 317.180 399.106,318.545 398.803,319.727 398.742 C 320.908 398.682,321.963 398.560,322.070 398.472 C 322.178 398.383,323.145 398.220,324.219 398.109 C 328.204 397.699,332.031 396.681,332.031 396.031 C 332.031 395.663,332.517 395.548,333.110 395.775 C 334.768 396.412,355.905 386.604,359.120 383.707 C 359.905 383.000,362.023 381.420,363.827 380.195 C 367.493 377.706,378.666 366.371,380.938 362.837 C 381.747 361.577,382.991 359.905,383.701 359.120 C 385.011 357.674,391.668 344.711,394.404 338.281 C 395.767 335.078,396.876 331.165,397.283 328.125 C 397.369 327.480,397.695 326.355,398.008 325.623 C 398.320 324.892,398.363 323.949,398.103 323.529 C 397.843 323.108,397.934 322.577,398.306 322.347 C 398.677 322.118,398.913 320.951,398.831 319.754 C 398.749 318.557,398.974 317.196,399.330 316.730 C 400.094 315.730,399.787 84.930,399.014 79.506 C 397.785 70.880,392.773 55.854,389.909 52.214 C 389.120 51.211,388.454 50.039,388.428 49.609 C 388.354 48.368,384.112 41.406,383.430 41.406 C 383.090 41.406,382.813 40.917,382.813 40.318 C 382.813 39.719,382.285 39.027,381.641 38.780 C 380.996 38.533,380.469 37.920,380.469 37.419 C 380.469 36.917,379.612 35.713,378.564 34.742 C 377.516 33.771,376.817 32.818,377.010 32.625 C 377.475 32.160,365.708 20.907,362.811 19.045 C 361.566 18.245,359.905 17.009,359.120 16.299 C 357.674 14.989,344.711 8.332,338.281 5.596 C 335.078 4.233,331.165 3.124,328.125 2.717 C 327.480 2.631,326.355 2.305,325.623 1.992 C 324.892 1.680,323.949 1.637,323.529 1.897 C 323.108 2.157,322.570 2.054,322.332 1.670 C 322.094 1.285,320.834 1.061,319.531 1.172 C 318.229 1.283,316.976 1.071,316.748 0.702 C 316.293 -0.034,84.120 -0.266,83.386 0.468 M319.874 20.882 C 321.566 21.374,323.148 21.743,323.389 21.702 C 323.631 21.661,324.355 21.844,325.000 22.108 C 325.645 22.373,328.355 23.307,331.024 24.183 C 337.298 26.244,341.637 28.265,342.422 29.492 C 342.765 30.029,343.377 30.469,343.780 30.469 C 345.697 30.469,365.191 47.416,365.251 49.135 C 365.260 49.396,366.758 51.837,368.579 54.559 C 371.709 59.237,375.781 67.224,375.781 68.684 C 375.781 69.052,376.291 70.334,376.913 71.534 C 377.536 72.734,377.857 74.020,377.627 74.392 C 377.397 74.764,377.634 75.580,378.153 76.206 C 378.673 76.832,378.916 77.344,378.694 77.344 C 378.471 77.344,378.636 78.662,379.059 80.273 C 380.350 85.190,380.351 85.321,380.406 200.078 C 380.443 277.106,380.197 312.900,379.611 316.073 C 379.144 318.598,378.685 321.390,378.590 322.278 C 378.495 323.167,378.217 324.231,377.973 324.642 C 377.728 325.054,377.270 326.621,376.955 328.125 C 376.640 329.629,376.032 331.294,375.604 331.826 C 375.175 332.358,375.034 333.338,375.290 334.004 C 375.549 334.680,375.274 335.400,374.667 335.633 C 374.068 335.863,373.349 336.964,373.069 338.081 C 372.789 339.197,371.878 340.977,371.045 342.036 C 370.213 343.095,369.531 344.441,369.531 345.027 C 369.531 345.614,369.159 346.094,368.704 346.094 C 368.249 346.094,368.062 346.394,368.289 346.761 C 368.516 347.129,367.834 348.245,366.773 349.241 C 365.712 350.238,364.844 351.356,364.844 351.727 C 364.844 352.097,364.137 353.178,363.274 354.129 C 357.178 360.845,355.488 362.500,354.724 362.500 C 354.247 362.500,353.655 363.027,353.408 363.672 C 353.160 364.316,352.529 364.844,352.006 364.844 C 351.482 364.844,350.238 365.712,349.241 366.773 C 348.245 367.834,347.129 368.516,346.761 368.289 C 346.394 368.062,346.094 368.249,346.094 368.704 C 346.094 369.159,345.614 369.531,345.027 369.531 C 344.441 369.531,343.095 370.213,342.036 371.045 C 340.977 371.878,339.197 372.789,338.081 373.069 C 336.964 373.349,335.852 374.096,335.609 374.729 C 335.366 375.362,334.780 375.641,334.306 375.348 C 333.832 375.055,332.687 375.177,331.761 375.618 C 329.551 376.672,327.234 377.509,325.781 377.777 C 325.137 377.897,323.555 378.210,322.266 378.474 C 320.977 378.738,318.023 379.292,315.703 379.706 C 311.857 380.393,92.903 380.759,85.938 380.090 C 84.434 379.946,81.885 379.482,80.273 379.059 C 78.662 378.636,77.344 378.471,77.344 378.694 C 77.344 378.916,76.832 378.673,76.206 378.153 C 75.580 377.634,74.764 377.397,74.392 377.627 C 74.020 377.857,72.734 377.536,71.534 376.913 C 70.334 376.291,69.052 375.781,68.684 375.781 C 67.224 375.781,59.237 371.709,54.559 368.579 C 51.837 366.758,49.396 365.260,49.135 365.251 C 47.416 365.191,30.469 345.697,30.469 343.780 C 30.469 343.377,30.029 342.765,29.492 342.422 C 28.265 341.637,26.244 337.298,24.183 331.024 C 23.307 328.355,22.382 325.645,22.129 325.000 C 21.876 324.355,21.571 323.116,21.453 322.245 C 21.335 321.375,20.856 318.598,20.389 316.073 C 19.803 312.900,19.557 277.106,19.594 200.078 C 19.649 85.321,19.650 85.190,20.941 80.273 C 21.364 78.662,21.529 77.344,21.306 77.344 C 21.084 77.344,21.309 76.853,21.807 76.254 C 22.304 75.655,22.644 74.864,22.563 74.496 C 22.482 74.129,22.981 72.559,23.672 71.007 C 24.364 69.456,25.091 67.301,25.287 66.219 C 25.696 63.961,27.624 60.020,29.083 58.458 C 29.630 57.872,30.676 56.320,31.406 55.009 C 33.094 51.979,35.652 49.058,42.969 41.804 C 50.596 34.242,51.768 33.226,54.830 31.512 C 56.240 30.723,57.876 29.627,58.466 29.076 C 59.672 27.948,65.024 25.109,65.625 25.277 C 66.530 25.530,75.781 22.212,75.781 21.634 C 75.781 21.286,76.064 21.176,76.410 21.390 C 76.756 21.604,78.426 21.421,80.121 20.983 C 81.816 20.545,85.479 20.020,88.260 19.816 C 91.041 19.612,93.384 19.376,93.468 19.293 C 94.185 18.575,317.326 20.141,319.874 20.882 M246.284 138.646 L 244.141 140.489 243.914 190.752 C 243.643 250.666,243.977 254.874,249.394 259.949 C 252.941 263.272,261.959 264.529,265.112 262.141 C 268.333 259.700,266.148 250.054,262.584 250.986 C 259.034 251.914,258.998 251.381,258.763 194.175 C 258.542 140.355,258.540 140.301,256.878 138.752 C 254.339 136.387,248.973 136.333,246.284 138.646 M54.418 146.879 C 49.857 148.278,50.052 145.747,50.025 203.965 L 50.000 257.540 51.922 259.345 C 55.275 262.496,62.540 261.428,64.026 257.566 C 64.387 256.627,64.731 248.860,64.791 240.306 L 64.899 224.753 67.020 222.299 C 68.186 220.949,70.316 218.384,71.752 216.599 C 73.188 214.814,75.122 212.514,76.049 211.488 C 78.335 208.958,81.921 204.553,82.857 203.123 C 83.814 201.662,84.649 202.661,89.302 210.831 C 91.104 213.995,93.345 217.862,94.282 219.424 C 95.220 220.987,96.547 223.320,97.233 224.609 C 97.918 225.898,98.909 227.665,99.435 228.534 C 102.034 232.835,113.845 253.541,115.055 255.919 C 116.906 259.555,120.614 261.712,125.021 261.716 C 131.874 261.721,134.003 257.328,129.480 252.514 C 128.520 251.492,127.775 250.420,127.824 250.132 C 128.002 249.095,126.294 246.094,125.526 246.094 C 125.093 246.094,124.977 245.856,125.268 245.566 C 125.558 245.275,125.001 244.192,124.031 243.159 C 123.060 242.126,122.306 241.045,122.355 240.757 C 122.523 239.778,120.846 236.719,120.141 236.719 C 119.755 236.719,119.641 236.391,119.889 235.991 C 120.136 235.591,120.011 235.062,119.612 234.815 C 119.212 234.568,118.120 232.786,117.185 230.855 C 116.251 228.924,115.145 227.344,114.728 227.344 C 114.311 227.344,114.173 227.016,114.420 226.616 C 114.667 226.216,114.542 225.687,114.143 225.440 C 113.743 225.193,112.652 223.411,111.717 221.480 C 110.782 219.549,109.697 217.969,109.305 217.969 C 108.914 217.969,108.673 217.705,108.770 217.383 C 109.034 216.508,104.543 208.594,103.782 208.594 C 103.421 208.594,103.197 208.330,103.286 208.008 C 103.528 207.125,100.815 202.190,98.991 200.195 C 98.107 199.229,97.612 198.438,97.890 198.438 C 98.169 198.438,97.351 196.664,96.073 194.497 C 93.267 189.736,93.242 190.609,96.289 186.908 C 97.686 185.213,99.883 182.517,101.172 180.919 C 102.461 179.320,104.332 177.071,105.329 175.920 C 106.327 174.770,108.083 172.598,109.231 171.094 C 110.380 169.590,111.498 168.184,111.716 167.969 C 112.331 167.362,116.543 162.306,119.141 159.056 C 120.430 157.444,122.446 155.010,123.620 153.648 C 128.018 148.550,125.478 145.464,117.684 146.437 C 113.314 146.983,110.179 149.239,105.078 155.506 C 104.219 156.562,100.791 160.648,97.461 164.588 C 94.131 168.527,91.406 172.046,91.406 172.408 C 91.406 172.770,90.527 173.727,89.453 174.533 C 88.379 175.340,87.500 176.395,87.500 176.877 C 87.500 177.359,86.621 178.414,85.547 179.221 C 84.473 180.028,83.594 181.002,83.594 181.386 C 83.594 181.770,82.627 183.058,81.445 184.249 C 80.264 185.440,78.242 187.737,76.953 189.354 C 75.664 190.972,73.906 193.094,73.047 194.070 C 71.206 196.162,67.031 201.421,66.253 202.627 C 65.043 204.505,64.880 201.601,64.823 177.124 C 64.787 161.642,64.467 151.422,64.010 151.139 C 63.595 150.883,63.448 150.361,63.684 149.980 C 64.843 148.104,57.947 145.796,54.418 146.879 M312.179 174.800 C 311.929 175.050,310.581 175.374,309.183 175.519 C 306.288 175.821,304.128 176.579,296.680 179.907 C 293.779 181.202,291.406 182.562,291.406 182.928 C 291.406 183.294,290.879 183.594,290.234 183.594 C 289.590 183.594,289.019 184.121,288.965 184.766 C 288.911 185.410,288.801 186.377,288.719 186.914 C 287.860 192.576,293.184 194.440,300.662 191.094 C 320.448 182.241,333.456 186.401,334.917 202.048 C 335.411 207.339,334.554 208.278,329.544 207.938 C 328.390 207.860,327.247 208.118,327.004 208.512 C 326.760 208.906,325.856 209.044,324.995 208.819 C 324.134 208.594,322.959 208.799,322.385 209.276 C 321.811 209.753,321.124 209.927,320.860 209.662 C 320.596 209.398,319.749 209.447,318.979 209.772 C 318.209 210.096,316.523 210.495,315.234 210.658 C 311.956 211.072,302.833 214.143,302.256 215.026 C 301.994 215.429,301.539 215.692,301.246 215.611 C 300.271 215.340,296.094 217.366,296.094 218.110 C 296.094 218.513,295.740 218.623,295.307 218.356 C 294.874 218.089,294.309 218.419,294.052 219.091 C 293.794 219.763,293.124 220.313,292.564 220.313 C 288.552 220.313,283.376 231.731,283.796 239.653 C 285.083 263.887,309.643 271.148,332.942 254.181 L 336.587 251.526 337.102 254.084 C 338.041 258.748,338.320 259.215,340.895 260.437 C 343.660 261.749,346.448 261.424,348.633 259.534 C 350.533 257.891,350.692 204.204,348.820 196.264 C 347.213 189.450,337.500 174.125,337.500 178.405 C 337.500 178.742,336.951 178.469,336.280 177.798 C 333.673 175.191,314.209 172.770,312.179 174.800 M154.533 176.196 C 154.304 176.425,153.327 176.764,152.361 176.950 C 148.539 177.686,148.489 178.098,148.462 209.055 C 148.430 246.429,150.422 254.915,160.343 259.674 C 160.885 259.934,161.855 260.453,162.500 260.828 C 166.630 263.232,180.225 263.945,183.984 261.955 C 184.844 261.500,186.777 260.589,188.281 259.930 C 191.479 258.530,194.418 256.321,199.033 251.850 C 202.782 248.218,202.892 248.252,203.198 253.126 C 203.756 262.048,213.322 265.138,215.662 257.153 C 217.070 252.352,216.331 181.335,214.850 179.100 C 213.334 176.811,209.197 175.403,207.172 176.487 C 206.348 176.928,205.452 177.067,205.181 176.795 C 204.910 176.524,204.688 176.771,204.688 177.344 C 204.688 177.917,204.459 178.157,204.179 177.877 C 202.035 175.732,201.612 180.684,201.587 208.224 L 201.563 236.370 197.070 241.125 C 189.005 249.663,181.480 251.990,171.188 249.128 C 170.153 248.840,165.943 245.117,166.223 244.737 C 166.298 244.635,165.684 242.976,164.859 241.051 C 163.478 237.829,163.354 235.361,163.301 210.064 C 163.237 179.543,163.046 178.231,158.414 176.617 C 155.700 175.671,155.121 175.608,154.533 176.196 M335.156 228.942 C 335.156 241.029,334.120 244.531,330.543 244.531 C 330.115 244.531,329.421 245.146,329.000 245.898 C 328.579 246.650,328.122 247.126,327.985 246.955 C 327.847 246.784,326.229 247.412,324.390 248.350 C 315.252 253.012,300.040 251.726,300.006 246.289 C 300.003 245.752,299.648 245.313,299.219 245.313 C 298.789 245.313,298.504 245.049,298.584 244.727 C 298.665 244.404,298.484 242.734,298.182 241.016 C 296.041 228.834,311.295 218.663,333.789 217.272 C 335.034 217.195,335.156 218.236,335.156 228.942 " stroke="none" fill="#000000" fill-rule="evenodd"></path></g></svg>