<svg id="svg" version="1.1" xmlns="http://www.w3.org/2000/svg" xmlns:xlink="http://www.w3.org/1999/xlink" width="400" height="400" viewBox="0, 0, 400,400"><g id="svgg"><path id="path0" d="M81.000 0.293 C 79.680 0.376,78.429 0.614,78.220 0.822 C 78.011 1.030,76.976 1.200,75.920 1.200 C 74.864 1.200,74.000 1.380,74.000 1.600 C 74.000 1.820,73.280 2.000,72.400 2.000 C 71.520 2.000,70.800 2.180,70.800 2.400 C 70.800 2.620,70.080 2.800,69.200 2.800 C 68.320 2.800,67.600 2.980,67.600 3.200 C 67.600 3.420,67.060 3.600,66.400 3.600 C 65.740 3.600,65.200 3.780,65.200 4.000 C 65.200 4.220,64.660 4.400,64.000 4.400 C 63.340 4.400,62.800 4.580,62.800 4.800 C 62.800 5.020,62.361 5.200,61.824 5.200 C 61.287 5.200,60.736 5.380,60.600 5.600 C 60.464 5.820,60.003 6.000,59.576 6.000 C 59.149 6.000,58.800 6.180,58.800 6.400 C 58.800 6.620,58.350 6.800,57.800 6.800 C 57.250 6.800,56.800 6.980,56.800 7.200 C 56.800 7.420,56.440 7.600,56.000 7.600 C 55.560 7.600,55.200 7.780,55.200 8.000 C 55.200 8.220,54.885 8.401,54.500 8.402 C 54.115 8.404,53.284 8.674,52.654 9.002 C 52.024 9.331,51.259 9.600,50.954 9.600 C 50.649 9.600,50.400 9.780,50.400 10.000 C 50.400 10.220,50.040 10.400,49.600 10.400 C 49.160 10.400,48.800 10.580,48.800 10.800 C 48.800 11.020,48.564 11.200,48.275 11.200 C 47.987 11.200,47.364 11.560,46.892 12.000 C 46.420 12.440,45.756 12.800,45.417 12.800 C 45.078 12.800,44.800 12.980,44.800 13.200 C 44.800 13.420,44.530 13.600,44.200 13.600 C 43.870 13.600,43.600 13.750,43.600 13.932 C 43.600 14.115,43.105 14.519,42.500 14.830 C 41.895 15.140,41.109 15.711,40.753 16.097 C 40.397 16.484,39.884 16.800,39.614 16.800 C 39.343 16.800,38.617 17.340,38.000 18.000 C 37.383 18.660,36.667 19.200,36.408 19.200 C 36.149 19.200,35.246 19.920,34.400 20.800 C 33.554 21.680,32.663 22.400,32.418 22.400 C 32.173 22.400,31.366 22.985,30.623 23.700 C 29.881 24.415,28.492 25.743,27.537 26.650 C 24.916 29.140,22.400 31.979,22.400 32.447 C 22.400 32.675,21.680 33.554,20.800 34.400 C 19.920 35.246,19.200 36.149,19.200 36.408 C 19.200 36.667,18.660 37.383,18.000 38.000 C 17.340 38.617,16.800 39.343,16.800 39.614 C 16.800 39.884,16.484 40.397,16.097 40.753 C 15.711 41.109,15.140 41.895,14.830 42.500 C 14.519 43.105,14.115 43.600,13.932 43.600 C 13.750 43.600,13.600 43.870,13.600 44.200 C 13.600 44.530,13.420 44.800,13.200 44.800 C 12.980 44.800,12.800 45.078,12.800 45.417 C 12.800 45.756,12.440 46.420,12.000 46.892 C 11.560 47.364,11.200 47.987,11.200 48.275 C 11.200 48.564,11.020 48.800,10.800 48.800 C 10.580 48.800,10.400 49.160,10.400 49.600 C 10.400 50.040,10.220 50.400,10.000 50.400 C 9.780 50.400,9.600 50.649,9.600 50.954 C 9.600 51.259,9.331 52.024,9.002 52.654 C 8.674 53.284,8.404 54.115,8.402 54.500 C 8.401 54.885,8.220 55.200,8.000 55.200 C 7.780 55.200,7.600 55.560,7.600 56.000 C 7.600 56.440,7.420 56.800,7.200 56.800 C 6.980 56.800,6.800 57.250,6.800 57.800 C 6.800 58.350,6.620 58.800,6.400 58.800 C 6.180 58.800,6.000 59.149,6.000 59.576 C 6.000 60.003,5.820 60.464,5.600 60.600 C 5.380 60.736,5.200 61.287,5.200 61.824 C 5.200 62.361,5.020 62.800,4.800 62.800 C 4.580 62.800,4.400 63.340,4.400 64.000 C 4.400 64.660,4.220 65.200,4.000 65.200 C 3.780 65.200,3.600 65.740,3.600 66.400 C 3.600 67.060,3.420 67.600,3.200 67.600 C 2.980 67.600,2.800 68.320,2.800 69.200 C 2.800 70.080,2.620 70.800,2.400 70.800 C 2.180 70.800,2.000 71.520,2.000 72.400 C 2.000 73.280,1.820 74.000,1.600 74.000 C 1.380 74.000,1.200 74.864,1.200 75.920 C 1.200 76.976,0.975 78.065,0.700 78.340 C -0.035 79.075,-0.035 321.325,0.700 322.060 C 0.975 322.335,1.200 323.334,1.200 324.280 C 1.200 325.226,1.380 326.000,1.600 326.000 C 1.820 326.000,2.000 326.720,2.000 327.600 C 2.000 328.480,2.180 329.200,2.400 329.200 C 2.620 329.200,2.800 329.920,2.800 330.800 C 2.800 331.680,2.980 332.400,3.200 332.400 C 3.420 332.400,3.600 333.120,3.600 334.000 C 3.600 334.880,3.780 335.600,4.000 335.600 C 4.220 335.600,4.400 335.960,4.400 336.400 C 4.400 336.840,4.580 337.200,4.800 337.200 C 5.020 337.200,5.200 337.740,5.200 338.400 C 5.200 339.060,5.380 339.600,5.600 339.600 C 5.820 339.600,6.000 340.050,6.000 340.600 C 6.000 341.150,6.180 341.600,6.400 341.600 C 6.620 341.600,6.800 341.960,6.800 342.400 C 6.800 342.840,6.980 343.200,7.200 343.200 C 7.420 343.200,7.600 343.560,7.600 344.000 C 7.600 344.440,7.764 344.800,7.965 344.800 C 8.166 344.800,8.451 345.520,8.600 346.400 C 8.749 347.280,9.034 348.000,9.235 348.000 C 9.436 348.000,9.600 348.360,9.600 348.800 C 9.600 349.240,9.780 349.600,10.000 349.600 C 10.220 349.600,10.400 349.960,10.400 350.400 C 10.400 350.840,10.580 351.200,10.800 351.200 C 11.020 351.200,11.200 351.560,11.200 352.000 C 11.200 352.440,11.380 352.800,11.600 352.800 C 11.820 352.800,12.000 353.036,12.000 353.325 C 12.000 353.613,12.360 354.236,12.800 354.708 C 13.240 355.180,13.600 355.844,13.600 356.183 C 13.600 356.522,13.780 356.800,14.000 356.800 C 14.220 356.800,14.400 357.068,14.400 357.397 C 14.400 357.725,14.760 358.218,15.200 358.493 C 15.640 358.768,16.000 359.237,16.000 359.536 C 16.000 359.835,16.540 360.583,17.200 361.200 C 17.860 361.817,18.400 362.537,18.400 362.800 C 18.400 363.063,18.940 363.783,19.600 364.400 C 20.260 365.017,20.800 365.723,20.800 365.969 C 20.800 366.216,21.745 367.386,22.900 368.570 C 24.055 369.753,25.743 371.504,26.650 372.461 C 29.132 375.077,31.978 377.600,32.447 377.600 C 32.675 377.600,33.554 378.320,34.400 379.200 C 35.246 380.080,36.149 380.800,36.408 380.800 C 36.667 380.800,37.383 381.340,38.000 382.000 C 38.617 382.660,39.343 383.200,39.614 383.200 C 39.884 383.200,40.397 383.516,40.753 383.903 C 41.109 384.289,41.895 384.860,42.500 385.170 C 43.105 385.481,43.600 385.885,43.600 386.068 C 43.600 386.250,43.870 386.400,44.200 386.400 C 44.530 386.400,44.800 386.580,44.800 386.800 C 44.800 387.020,45.078 387.200,45.417 387.200 C 45.756 387.200,46.420 387.560,46.892 388.000 C 47.364 388.440,47.987 388.800,48.275 388.800 C 48.564 388.800,48.800 388.980,48.800 389.200 C 48.800 389.420,49.160 389.600,49.600 389.600 C 50.040 389.600,50.400 389.780,50.400 390.000 C 50.400 390.220,50.649 390.400,50.954 390.400 C 51.259 390.400,52.024 390.669,52.654 390.998 C 53.284 391.326,54.115 391.596,54.500 391.598 C 54.885 391.599,55.200 391.780,55.200 392.000 C 55.200 392.220,55.560 392.400,56.000 392.400 C 56.440 392.400,56.800 392.580,56.800 392.800 C 56.800 393.020,57.250 393.200,57.800 393.200 C 58.350 393.200,58.800 393.380,58.800 393.600 C 58.800 393.820,59.149 394.000,59.576 394.000 C 60.003 394.000,60.464 394.180,60.600 394.400 C 60.736 394.620,61.287 394.800,61.824 394.800 C 62.361 394.800,62.800 394.980,62.800 395.200 C 62.800 395.420,63.340 395.600,64.000 395.600 C 64.660 395.600,65.200 395.780,65.200 396.000 C 65.200 396.220,65.740 396.400,66.400 396.400 C 67.060 396.400,67.600 396.580,67.600 396.800 C 67.600 397.020,68.320 397.200,69.200 397.200 C 70.080 397.200,70.800 397.380,70.800 397.600 C 70.800 397.820,71.520 398.000,72.400 398.000 C 73.280 398.000,74.000 398.180,74.000 398.400 C 74.000 398.620,74.864 398.800,75.920 398.800 C 76.976 398.800,78.065 399.025,78.340 399.300 C 79.075 400.035,321.325 400.035,322.060 399.300 C 322.335 399.025,323.334 398.800,324.280 398.800 C 325.226 398.800,326.000 398.620,326.000 398.400 C 326.000 398.180,326.720 398.000,327.600 398.000 C 328.480 398.000,329.200 397.820,329.200 397.600 C 329.200 397.380,329.920 397.200,330.800 397.200 C 331.680 397.200,332.400 397.020,332.400 396.800 C 332.400 396.580,333.120 396.400,334.000 396.400 C 334.880 396.400,335.600 396.220,335.600 396.000 C 335.600 395.780,335.960 395.600,336.400 395.600 C 336.840 395.600,337.200 395.420,337.200 395.200 C 337.200 394.980,337.740 394.800,338.400 394.800 C 339.060 394.800,339.600 394.620,339.600 394.400 C 339.600 394.180,340.050 394.000,340.600 394.000 C 341.150 394.000,341.600 393.820,341.600 393.600 C 341.600 393.380,341.960 393.200,342.400 393.200 C 342.840 393.200,343.200 393.020,343.200 392.800 C 343.200 392.580,343.560 392.400,344.000 392.400 C 344.440 392.400,344.800 392.236,344.800 392.035 C 344.800 391.834,345.520 391.549,346.400 391.400 C 347.280 391.251,348.000 390.966,348.000 390.765 C 348.000 390.564,348.360 390.400,348.800 390.400 C 349.240 390.400,349.600 390.220,349.600 390.000 C 349.600 389.780,349.960 389.600,350.400 389.600 C 350.840 389.600,351.200 389.420,351.200 389.200 C 351.200 388.980,351.560 388.800,352.000 388.800 C 352.440 388.800,352.800 388.620,352.800 388.400 C 352.800 388.180,353.036 388.000,353.325 388.000 C 353.613 388.000,354.236 387.640,354.708 387.200 C 355.180 386.760,355.844 386.400,356.183 386.400 C 356.522 386.400,356.800 386.220,356.800 386.000 C 356.800 385.780,357.068 385.600,357.397 385.600 C 357.725 385.600,358.218 385.240,358.493 384.800 C 358.768 384.360,359.237 384.000,359.536 384.000 C 359.835 384.000,360.583 383.460,361.200 382.800 C 361.817 382.140,362.537 381.600,362.800 381.600 C 363.063 381.600,363.783 381.060,364.400 380.400 C 365.017 379.740,365.723 379.200,365.969 379.200 C 366.853 379.200,379.200 366.852,379.200 365.968 C 379.200 365.722,379.740 365.017,380.400 364.400 C 381.060 363.783,381.600 363.063,381.600 362.800 C 381.600 362.537,382.140 361.817,382.800 361.200 C 383.460 360.583,384.000 359.835,384.000 359.536 C 384.000 359.237,384.360 358.768,384.800 358.493 C 385.240 358.218,385.600 357.725,385.600 357.397 C 385.600 357.068,385.780 356.800,386.000 356.800 C 386.220 356.800,386.400 356.522,386.400 356.183 C 386.400 355.844,386.760 355.180,387.200 354.708 C 387.640 354.236,388.000 353.613,388.000 353.325 C 388.000 353.036,388.180 352.800,388.400 352.800 C 388.620 352.800,388.800 352.440,388.800 352.000 C 388.800 351.560,388.980 351.200,389.200 351.200 C 389.420 351.200,389.600 350.840,389.600 350.400 C 389.600 349.960,389.780 349.600,390.000 349.600 C 390.220 349.600,390.400 349.240,390.400 348.800 C 390.400 348.360,390.564 348.000,390.765 348.000 C 390.966 348.000,391.251 347.280,391.400 346.400 C 391.549 345.520,391.834 344.800,392.035 344.800 C 392.236 344.800,392.400 344.440,392.400 344.000 C 392.400 343.560,392.580 343.200,392.800 343.200 C 393.020 343.200,393.200 342.840,393.200 342.400 C 393.200 341.960,393.380 341.600,393.600 341.600 C 393.820 341.600,394.000 341.150,394.000 340.600 C 394.000 340.050,394.180 339.600,394.400 339.600 C 394.620 339.600,394.800 339.060,394.800 338.400 C 394.800 337.740,394.980 337.200,395.200 337.200 C 395.420 337.200,395.600 336.840,395.600 336.400 C 395.600 335.960,395.780 335.600,396.000 335.600 C 396.220 335.600,396.400 334.880,396.400 334.000 C 396.400 333.120,396.580 332.400,396.800 332.400 C 397.020 332.400,397.200 331.680,397.200 330.800 C 397.200 329.920,397.380 329.200,397.600 329.200 C 397.820 329.200,398.000 328.480,398.000 327.600 C 398.000 326.720,398.180 326.000,398.400 326.000 C 398.620 326.000,398.800 325.226,398.800 324.280 C 398.800 323.334,399.025 322.335,399.300 322.060 C 399.698 321.662,399.800 296.755,399.800 200.200 C 399.800 103.645,399.698 78.738,399.300 78.340 C 399.025 78.065,398.800 76.976,398.800 75.920 C 398.800 74.864,398.620 74.000,398.400 74.000 C 398.180 74.000,398.000 73.280,398.000 72.400 C 398.000 71.520,397.820 70.800,397.600 70.800 C 397.380 70.800,397.200 70.080,397.200 69.200 C 397.200 68.320,397.020 67.600,396.800 67.600 C 396.580 67.600,396.400 67.060,396.400 66.400 C 396.400 65.740,396.220 65.200,396.000 65.200 C 395.780 65.200,395.600 64.660,395.600 64.000 C 395.600 63.340,395.420 62.800,395.200 62.800 C 394.980 62.800,394.800 62.361,394.800 61.824 C 394.800 61.287,394.620 60.736,394.400 60.600 C 394.180 60.464,394.000 60.003,394.000 59.576 C 394.000 59.149,393.820 58.800,393.600 58.800 C 393.380 58.800,393.200 58.350,393.200 57.800 C 393.200 57.250,393.020 56.800,392.800 56.800 C 392.580 56.800,392.400 56.440,392.400 56.000 C 392.400 55.560,392.220 55.200,392.000 55.200 C 391.780 55.200,391.599 54.885,391.598 54.500 C 391.596 54.115,391.326 53.284,390.998 52.654 C 390.669 52.024,390.400 51.259,390.400 50.954 C 390.400 50.649,390.220 50.400,390.000 50.400 C 389.780 50.400,389.600 50.040,389.600 49.600 C 389.600 49.160,389.420 48.800,389.200 48.800 C 388.980 48.800,388.800 48.564,388.800 48.275 C 388.800 47.987,388.440 47.364,388.000 46.892 C 387.560 46.420,387.200 45.756,387.200 45.417 C 387.200 45.078,387.020 44.800,386.800 44.800 C 386.580 44.800,386.400 44.530,386.400 44.200 C 386.400 43.870,386.250 43.600,386.068 43.600 C 385.885 43.600,385.481 43.105,385.170 42.500 C 384.860 41.895,384.289 41.109,383.903 40.753 C 383.516 40.397,383.200 39.884,383.200 39.614 C 383.200 39.343,382.660 38.617,382.000 38.000 C 381.340 37.383,380.800 36.667,380.800 36.408 C 380.800 36.149,380.080 35.246,379.200 34.400 C 378.320 33.554,377.600 32.675,377.600 32.447 C 377.600 31.978,375.077 29.132,372.461 26.650 C 371.504 25.743,369.753 24.055,368.570 22.900 C 367.386 21.745,366.216 20.800,365.969 20.800 C 365.723 20.800,365.017 20.260,364.400 19.600 C 363.783 18.940,363.063 18.400,362.800 18.400 C 362.537 18.400,361.817 17.860,361.200 17.200 C 360.583 16.540,359.835 16.000,359.536 16.000 C 359.237 16.000,358.768 15.640,358.493 15.200 C 358.218 14.760,357.725 14.400,357.397 14.400 C 357.068 14.400,356.800 14.220,356.800 14.000 C 356.800 13.780,356.522 13.600,356.183 13.600 C 355.844 13.600,355.180 13.240,354.708 12.800 C 354.236 12.360,353.613 12.000,353.325 12.000 C 353.036 12.000,352.800 11.820,352.800 11.600 C 352.800 11.380,352.440 11.200,352.000 11.200 C 351.560 11.200,351.200 11.020,351.200 10.800 C 351.200 10.580,350.840 10.400,350.400 10.400 C 349.960 10.400,349.600 10.220,349.600 10.000 C 349.600 9.780,349.240 9.600,348.800 9.600 C 348.360 9.600,348.000 9.436,348.000 9.235 C 348.000 9.034,347.280 8.749,346.400 8.600 C 345.520 8.451,344.800 8.166,344.800 7.965 C 344.800 7.764,344.440 7.600,344.000 7.600 C 343.560 7.600,343.200 7.420,343.200 7.200 C 343.200 6.980,342.840 6.800,342.400 6.800 C 341.960 6.800,341.600 6.620,341.600 6.400 C 341.600 6.180,341.150 6.000,340.600 6.000 C 340.050 6.000,339.600 5.820,339.600 5.600 C 339.600 5.380,339.060 5.200,338.400 5.200 C 337.740 5.200,337.200 5.020,337.200 4.800 C 337.200 4.580,336.840 4.400,336.400 4.400 C 335.960 4.400,335.600 4.220,335.600 4.000 C 335.600 3.780,334.880 3.600,334.000 3.600 C 333.120 3.600,332.400 3.420,332.400 3.200 C 332.400 2.980,331.680 2.800,330.800 2.800 C 329.920 2.800,329.200 2.620,329.200 2.400 C 329.200 2.180,328.480 2.000,327.600 2.000 C 326.720 2.000,326.000 1.820,326.000 1.600 C 326.000 1.380,325.226 1.200,324.280 1.200 C 323.334 1.200,322.335 0.975,322.060 0.700 C 321.590 0.230,88.281 -0.163,81.000 0.293 M312.800 20.400 C 312.800 20.622,313.859 20.800,315.176 20.800 C 316.483 20.800,317.664 20.980,317.800 21.200 C 317.936 21.420,318.836 21.600,319.800 21.600 C 320.764 21.600,321.664 21.780,321.800 22.000 C 321.936 22.220,322.667 22.400,323.424 22.400 C 324.181 22.400,324.800 22.580,324.800 22.800 C 324.800 23.020,325.306 23.200,325.925 23.200 C 326.544 23.200,327.801 23.563,328.720 24.007 C 329.639 24.451,331.202 24.925,332.195 25.061 C 333.188 25.197,334.000 25.464,334.000 25.654 C 334.000 25.844,334.360 26.000,334.800 26.000 C 335.240 26.000,335.600 26.180,335.600 26.400 C 335.600 26.620,335.960 26.800,336.400 26.800 C 336.840 26.800,337.200 26.980,337.200 27.200 C 337.200 27.420,337.560 27.600,338.000 27.600 C 338.440 27.600,338.800 27.780,338.800 28.000 C 338.800 28.220,339.160 28.400,339.600 28.400 C 340.040 28.400,340.400 28.580,340.400 28.800 C 340.400 29.020,340.717 29.200,341.104 29.200 C 341.491 29.200,342.032 29.560,342.307 30.000 C 342.582 30.440,343.036 30.800,343.315 30.800 C 343.595 30.800,344.083 31.160,344.400 31.600 C 344.717 32.040,345.257 32.400,345.600 32.400 C 345.943 32.400,346.483 32.760,346.800 33.200 C 347.117 33.640,347.625 34.000,347.928 34.000 C 348.231 34.000,348.983 34.540,349.600 35.200 C 350.217 35.860,350.918 36.400,351.158 36.400 C 351.399 36.400,352.515 37.300,353.639 38.400 C 354.762 39.500,355.850 40.400,356.057 40.400 C 356.441 40.400,357.257 40.997,358.119 41.908 C 359.772 43.656,360.800 44.931,360.800 45.232 C 360.800 45.423,361.610 46.389,362.600 47.379 C 363.590 48.369,364.400 49.381,364.400 49.629 C 364.400 49.877,364.940 50.583,365.600 51.200 C 366.260 51.817,366.800 52.569,366.800 52.872 C 366.800 53.175,367.160 53.683,367.600 54.000 C 368.040 54.317,368.400 54.897,368.400 55.288 C 368.400 55.680,368.580 56.000,368.800 56.000 C 369.020 56.000,369.200 56.270,369.200 56.600 C 369.200 56.930,369.380 57.200,369.600 57.200 C 369.820 57.200,370.000 57.470,370.000 57.800 C 370.000 58.130,370.180 58.400,370.400 58.400 C 370.620 58.400,370.800 58.670,370.800 59.000 C 370.800 59.330,370.980 59.600,371.200 59.600 C 371.420 59.600,371.600 59.960,371.600 60.400 C 371.600 60.840,371.780 61.200,372.000 61.200 C 372.220 61.200,372.400 61.560,372.400 62.000 C 372.400 62.440,372.580 62.800,372.800 62.800 C 373.020 62.800,373.200 63.160,373.200 63.600 C 373.200 64.040,373.380 64.400,373.600 64.400 C 373.820 64.400,374.000 64.760,374.000 65.200 C 374.000 65.640,374.180 66.000,374.400 66.000 C 374.620 66.000,374.800 66.429,374.800 66.954 C 374.800 67.978,375.840 71.753,376.437 72.895 C 376.637 73.277,376.800 74.132,376.800 74.795 C 376.800 75.458,376.980 76.000,377.200 76.000 C 377.420 76.000,377.600 76.540,377.600 77.200 C 377.600 77.860,377.780 78.400,378.000 78.400 C 378.220 78.400,378.400 79.300,378.400 80.400 C 378.400 81.500,378.580 82.400,378.800 82.400 C 379.025 82.400,379.200 83.525,379.200 84.976 C 379.200 86.393,379.380 87.664,379.600 87.800 C 380.155 88.143,380.155 312.800,379.600 312.800 C 379.378 312.800,379.200 313.859,379.200 315.176 C 379.200 316.483,379.020 317.664,378.800 317.800 C 378.580 317.936,378.400 318.836,378.400 319.800 C 378.400 320.764,378.220 321.664,378.000 321.800 C 377.780 321.936,377.600 322.667,377.600 323.424 C 377.600 324.181,377.420 324.800,377.200 324.800 C 376.980 324.800,376.800 325.400,376.800 326.133 C 376.800 326.867,376.681 327.586,376.535 327.732 C 376.076 328.191,374.800 332.127,374.800 333.085 C 374.800 333.588,374.620 334.000,374.400 334.000 C 374.180 334.000,374.000 334.360,374.000 334.800 C 374.000 335.240,373.820 335.600,373.600 335.600 C 373.380 335.600,373.200 336.140,373.200 336.800 C 373.200 337.460,373.020 338.000,372.800 338.000 C 372.580 338.000,372.400 338.360,372.400 338.800 C 372.400 339.240,372.220 339.600,372.000 339.600 C 371.780 339.600,371.600 339.920,371.600 340.312 C 371.600 340.703,371.240 341.283,370.800 341.600 C 370.360 341.917,370.000 342.407,370.000 342.688 C 370.000 342.970,369.820 343.200,369.600 343.200 C 369.380 343.200,369.200 343.560,369.200 344.000 C 369.200 344.440,369.020 344.800,368.800 344.800 C 368.580 344.800,368.400 345.025,368.399 345.300 C 368.399 345.575,367.859 346.430,367.200 347.200 C 366.541 347.970,366.001 348.785,366.001 349.012 C 366.000 349.238,365.640 349.683,365.200 350.000 C 364.760 350.317,364.400 350.807,364.400 351.088 C 364.400 351.369,363.680 352.341,362.800 353.248 C 361.920 354.155,361.200 355.073,361.200 355.288 C 361.200 355.503,360.660 356.183,360.000 356.800 C 359.340 357.417,358.800 358.119,358.800 358.360 C 358.800 358.602,358.647 358.800,358.459 358.800 C 358.272 358.800,357.554 359.340,356.863 360.000 C 356.172 360.660,355.447 361.200,355.252 361.200 C 355.056 361.200,354.155 361.920,353.248 362.800 C 352.341 363.680,351.369 364.400,351.088 364.400 C 350.807 364.400,350.317 364.760,350.000 365.200 C 349.683 365.640,349.238 366.000,349.012 366.001 C 348.785 366.001,347.970 366.541,347.200 367.200 C 346.430 367.859,345.575 368.399,345.300 368.399 C 345.025 368.400,344.800 368.580,344.800 368.800 C 344.800 369.020,344.440 369.200,344.000 369.200 C 343.560 369.200,343.200 369.380,343.200 369.600 C 343.200 369.820,342.970 370.000,342.688 370.000 C 342.407 370.000,341.917 370.360,341.600 370.800 C 341.283 371.240,340.703 371.600,340.312 371.600 C 339.920 371.600,339.600 371.780,339.600 372.000 C 339.600 372.220,339.240 372.400,338.800 372.400 C 338.360 372.400,338.000 372.580,338.000 372.800 C 338.000 373.020,337.460 373.200,336.800 373.200 C 336.140 373.200,335.600 373.380,335.600 373.600 C 335.600 373.820,335.240 374.000,334.800 374.000 C 334.360 374.000,334.000 374.180,334.000 374.400 C 334.000 374.620,333.588 374.800,333.085 374.800 C 332.127 374.800,328.191 376.076,327.732 376.535 C 327.586 376.681,326.867 376.800,326.133 376.800 C 325.400 376.800,324.800 376.980,324.800 377.200 C 324.800 377.420,324.181 377.600,323.424 377.600 C 322.667 377.600,321.936 377.780,321.800 378.000 C 321.664 378.220,320.764 378.400,319.800 378.400 C 318.836 378.400,317.936 378.580,317.800 378.800 C 317.664 379.020,316.483 379.200,315.176 379.200 C 313.859 379.200,312.800 379.378,312.800 379.600 C 312.800 380.155,88.143 380.155,87.800 379.600 C 87.664 379.380,86.393 379.200,84.976 379.200 C 83.525 379.200,82.400 379.025,82.400 378.800 C 82.400 378.580,81.500 378.400,80.400 378.400 C 79.300 378.400,78.400 378.220,78.400 378.000 C 78.400 377.780,77.860 377.600,77.200 377.600 C 76.540 377.600,76.000 377.420,76.000 377.200 C 76.000 376.980,75.458 376.800,74.795 376.800 C 74.132 376.800,73.277 376.637,72.895 376.437 C 71.753 375.840,67.978 374.800,66.954 374.800 C 66.429 374.800,66.000 374.620,66.000 374.400 C 66.000 374.180,65.640 374.000,65.200 374.000 C 64.760 374.000,64.400 373.820,64.400 373.600 C 64.400 373.380,64.040 373.200,63.600 373.200 C 63.160 373.200,62.800 373.020,62.800 372.800 C 62.800 372.580,62.440 372.400,62.000 372.400 C 61.560 372.400,61.200 372.220,61.200 372.000 C 61.200 371.780,60.840 371.600,60.400 371.600 C 59.960 371.600,59.600 371.420,59.600 371.200 C 59.600 370.980,59.330 370.800,59.000 370.800 C 58.670 370.800,58.400 370.620,58.400 370.400 C 58.400 370.180,58.130 370.000,57.800 370.000 C 57.470 370.000,57.200 369.820,57.200 369.600 C 57.200 369.380,56.930 369.200,56.600 369.200 C 56.270 369.200,56.000 369.020,56.000 368.800 C 56.000 368.580,55.680 368.400,55.288 368.400 C 54.897 368.400,54.317 368.040,54.000 367.600 C 53.683 367.160,53.175 366.800,52.872 366.800 C 52.569 366.800,51.817 366.260,51.200 365.600 C 50.583 364.940,49.877 364.400,49.629 364.400 C 49.381 364.400,48.369 363.590,47.379 362.600 C 46.389 361.610,45.423 360.800,45.232 360.800 C 44.931 360.800,43.656 359.772,41.908 358.119 C 40.997 357.257,40.400 356.441,40.400 356.057 C 40.400 355.850,39.500 354.762,38.400 353.639 C 37.300 352.515,36.400 351.399,36.400 351.158 C 36.400 350.918,35.860 350.217,35.200 349.600 C 34.540 348.983,34.000 348.231,34.000 347.928 C 34.000 347.625,33.640 347.117,33.200 346.800 C 32.760 346.483,32.400 345.943,32.400 345.600 C 32.400 345.257,32.040 344.717,31.600 344.400 C 31.160 344.083,30.800 343.595,30.800 343.315 C 30.800 343.036,30.440 342.582,30.000 342.307 C 29.560 342.032,29.200 341.491,29.200 341.104 C 29.200 340.717,29.020 340.400,28.800 340.400 C 28.580 340.400,28.400 340.040,28.400 339.600 C 28.400 339.160,28.220 338.800,28.000 338.800 C 27.780 338.800,27.600 338.440,27.600 338.000 C 27.600 337.560,27.420 337.200,27.200 337.200 C 26.980 337.200,26.800 336.840,26.800 336.400 C 26.800 335.960,26.620 335.600,26.400 335.600 C 26.180 335.600,26.000 335.240,26.000 334.800 C 26.000 334.360,25.844 334.000,25.654 334.000 C 25.464 334.000,25.197 333.188,25.061 332.195 C 24.925 331.202,24.451 329.639,24.007 328.720 C 23.563 327.801,23.200 326.544,23.200 325.925 C 23.200 325.306,23.020 324.800,22.800 324.800 C 22.580 324.800,22.400 324.181,22.400 323.424 C 22.400 322.667,22.220 321.936,22.000 321.800 C 21.780 321.664,21.600 320.764,21.600 319.800 C 21.600 318.836,21.420 317.936,21.200 317.800 C 20.980 317.664,20.800 316.483,20.800 315.176 C 20.800 313.859,20.622 312.800,20.400 312.800 C 20.134 312.800,20.000 275.075,20.000 200.424 C 20.000 125.937,20.135 87.964,20.400 87.800 C 20.620 87.664,20.800 86.393,20.800 84.976 C 20.800 83.525,20.975 82.400,21.200 82.400 C 21.420 82.400,21.600 81.500,21.600 80.400 C 21.600 79.300,21.780 78.400,22.000 78.400 C 22.220 78.400,22.400 77.860,22.400 77.200 C 22.400 76.540,22.580 76.000,22.800 76.000 C 23.020 76.000,23.200 75.458,23.200 74.795 C 23.200 74.132,23.408 73.187,23.662 72.695 C 24.696 70.694,24.828 70.310,25.063 68.591 C 25.198 67.606,25.464 66.800,25.654 66.800 C 25.844 66.800,26.000 66.440,26.000 66.000 C 26.000 65.560,26.180 65.200,26.400 65.200 C 26.620 65.200,26.800 64.840,26.800 64.400 C 26.800 63.960,26.980 63.600,27.200 63.600 C 27.420 63.600,27.600 63.240,27.600 62.800 C 27.600 62.360,27.780 62.000,28.000 62.000 C 28.220 62.000,28.400 61.640,28.400 61.200 C 28.400 60.760,28.580 60.400,28.800 60.400 C 29.020 60.400,29.200 60.080,29.200 59.688 C 29.200 59.297,29.560 58.717,30.000 58.400 C 30.440 58.083,30.800 57.593,30.800 57.312 C 30.800 57.030,30.980 56.800,31.200 56.800 C 31.420 56.800,31.600 56.480,31.600 56.088 C 31.600 55.697,31.960 55.117,32.400 54.800 C 32.840 54.483,33.200 53.979,33.200 53.680 C 33.200 53.382,33.920 52.446,34.800 51.600 C 35.680 50.754,36.400 49.875,36.400 49.646 C 36.400 49.257,39.701 45.607,42.705 42.674 C 47.734 37.765,49.239 36.400,49.624 36.400 C 49.865 36.400,50.754 35.680,51.600 34.800 C 52.446 33.920,53.382 33.200,53.680 33.200 C 53.979 33.200,54.483 32.840,54.800 32.400 C 55.117 31.960,55.697 31.600,56.088 31.600 C 56.480 31.600,56.800 31.420,56.800 31.200 C 56.800 30.980,57.030 30.800,57.312 30.800 C 57.593 30.800,58.083 30.440,58.400 30.000 C 58.717 29.560,59.297 29.200,59.688 29.200 C 60.080 29.200,60.400 29.020,60.400 28.800 C 60.400 28.580,60.760 28.400,61.200 28.400 C 61.640 28.400,62.000 28.220,62.000 28.000 C 62.000 27.780,62.360 27.600,62.800 27.600 C 63.240 27.600,63.600 27.420,63.600 27.200 C 63.600 26.980,63.960 26.800,64.400 26.800 C 64.840 26.800,65.200 26.620,65.200 26.400 C 65.200 26.180,65.560 26.000,66.000 26.000 C 66.440 26.000,66.800 25.844,66.800 25.654 C 66.800 25.464,67.606 25.198,68.591 25.063 C 69.576 24.928,70.791 24.606,71.291 24.346 C 73.277 23.317,73.633 23.200,74.795 23.200 C 75.458 23.200,76.000 23.020,76.000 22.800 C 76.000 22.580,76.540 22.400,77.200 22.400 C 77.860 22.400,78.400 22.220,78.400 22.000 C 78.400 21.780,79.300 21.600,80.400 21.600 C 81.500 21.600,82.400 21.420,82.400 21.200 C 82.400 20.975,83.525 20.800,84.976 20.800 C 86.393 20.800,87.664 20.620,87.800 20.400 C 87.964 20.135,125.937 20.000,200.424 20.000 C 275.075 20.000,312.800 20.134,312.800 20.400 M246.800 137.200 C 246.483 137.640,245.903 138.000,245.512 138.000 C 245.067 138.000,244.800 138.300,244.800 138.800 C 244.800 139.240,244.620 139.600,244.400 139.600 C 244.180 139.600,244.000 140.399,244.000 141.376 C 244.000 142.353,243.820 143.264,243.600 143.400 C 243.337 143.563,243.200 160.937,243.200 194.224 C 243.200 227.675,243.335 244.800,243.600 244.800 C 243.838 244.800,244.000 246.325,244.000 248.576 C 244.000 250.663,244.179 252.463,244.400 252.600 C 244.620 252.736,244.800 253.276,244.800 253.800 C 244.800 254.324,244.980 254.864,245.200 255.000 C 245.420 255.136,245.600 255.597,245.600 256.024 C 245.600 256.451,245.780 256.800,246.000 256.800 C 246.220 256.800,246.400 257.007,246.400 257.260 C 246.400 257.924,250.707 262.000,251.409 262.000 C 251.734 262.000,252.000 262.180,252.000 262.400 C 252.000 262.620,252.540 262.800,253.200 262.800 C 253.860 262.800,254.400 262.980,254.400 263.200 C 254.400 263.446,256.406 263.600,259.618 263.600 C 265.383 263.600,266.800 263.012,266.800 260.618 C 266.800 260.058,266.980 259.600,267.200 259.600 C 267.426 259.600,267.600 258.467,267.600 257.000 C 267.600 255.533,267.426 254.400,267.200 254.400 C 266.980 254.400,266.800 254.040,266.800 253.600 C 266.800 253.160,266.620 252.800,266.400 252.800 C 266.180 252.800,266.000 252.440,266.000 252.000 C 266.000 251.467,265.733 251.200,265.200 251.200 C 264.760 251.200,264.400 251.020,264.400 250.800 C 264.400 250.580,263.762 250.400,262.982 250.400 C 260.887 250.400,259.600 248.961,259.600 246.618 C 259.600 245.618,259.420 244.800,259.200 244.800 C 258.935 244.800,258.800 227.000,258.800 192.200 L 258.800 139.599 257.152 138.000 L 255.504 136.400 251.440 136.400 C 247.835 136.400,247.311 136.490,246.800 137.200 M56.000 146.000 C 56.000 146.220,55.280 146.400,54.400 146.400 C 53.520 146.400,52.800 146.580,52.800 146.800 C 52.800 147.020,52.517 147.200,52.171 147.200 C 51.363 147.200,50.400 148.163,50.400 148.971 C 50.400 149.317,50.220 149.600,50.000 149.600 C 49.357 149.600,49.456 257.358,50.100 258.490 C 50.863 259.831,51.480 260.400,52.171 260.400 C 52.517 260.400,52.800 260.580,52.800 260.800 C 52.800 261.020,53.520 261.200,54.400 261.200 C 55.280 261.200,56.000 261.380,56.000 261.600 C 56.000 261.820,56.630 262.000,57.400 262.000 C 58.170 262.000,58.800 261.820,58.800 261.600 C 58.800 261.380,59.436 261.200,60.213 261.200 C 61.733 261.200,64.400 259.042,64.400 257.813 C 64.400 257.476,64.580 257.200,64.800 257.200 C 65.060 257.200,65.200 251.600,65.200 241.200 C 65.200 230.800,65.340 225.200,65.600 225.200 C 65.820 225.200,66.000 225.021,66.000 224.802 C 66.000 224.583,66.900 223.485,68.000 222.361 C 69.100 221.238,70.000 220.152,70.000 219.949 C 70.000 219.745,70.765 218.784,71.700 217.813 C 73.824 215.606,74.166 215.185,74.809 213.982 C 75.094 213.450,76.018 212.351,76.864 211.539 C 77.709 210.727,78.400 209.779,78.400 209.431 C 78.400 209.084,78.580 208.800,78.800 208.800 C 79.304 208.800,82.400 205.637,82.400 205.123 C 82.400 204.527,83.478 203.600,84.171 203.600 C 84.533 203.600,84.800 203.939,84.800 204.400 C 84.800 204.840,84.980 205.200,85.200 205.200 C 85.420 205.200,85.600 205.436,85.600 205.725 C 85.600 206.013,85.960 206.636,86.400 207.108 C 86.840 207.580,87.200 208.154,87.200 208.383 C 87.200 208.612,87.380 208.800,87.600 208.800 C 87.820 208.800,88.000 209.160,88.000 209.600 C 88.000 210.040,88.180 210.400,88.400 210.400 C 88.620 210.400,88.800 210.720,88.800 211.112 C 88.800 211.503,89.160 212.083,89.600 212.400 C 90.040 212.717,90.400 213.297,90.400 213.688 C 90.400 214.080,90.580 214.400,90.800 214.400 C 91.020 214.400,91.200 214.760,91.200 215.200 C 91.200 215.640,91.380 216.000,91.600 216.000 C 91.820 216.000,92.000 216.347,92.000 216.771 C 92.000 217.196,92.270 217.813,92.600 218.143 C 92.930 218.473,93.200 219.026,93.200 219.371 C 93.200 219.717,93.346 220.000,93.525 220.000 C 93.704 220.000,94.099 220.634,94.403 221.409 C 94.707 222.183,95.281 223.111,95.678 223.471 C 96.075 223.830,96.400 224.366,96.400 224.662 C 96.400 224.958,96.580 225.200,96.800 225.200 C 97.020 225.200,97.200 225.560,97.200 226.000 C 97.200 226.440,97.380 226.800,97.600 226.800 C 97.820 226.800,98.000 227.120,98.000 227.512 C 98.000 227.903,98.360 228.483,98.800 228.800 C 99.240 229.117,99.600 229.697,99.600 230.088 C 99.600 230.480,99.780 230.800,100.000 230.800 C 100.220 230.800,100.400 231.120,100.400 231.512 C 100.400 231.903,100.760 232.483,101.200 232.800 C 101.640 233.117,102.000 233.697,102.000 234.088 C 102.000 234.480,102.180 234.800,102.400 234.800 C 102.620 234.800,102.800 235.160,102.800 235.600 C 102.800 236.040,102.980 236.400,103.200 236.400 C 103.420 236.400,103.600 236.720,103.600 237.112 C 103.600 237.503,103.960 238.083,104.400 238.400 C 104.840 238.717,105.200 239.297,105.200 239.688 C 105.200 240.080,105.380 240.400,105.600 240.400 C 105.820 240.400,106.000 240.670,106.000 241.000 C 106.000 241.330,106.180 241.600,106.400 241.600 C 106.620 241.600,106.800 241.920,106.800 242.312 C 106.800 242.703,107.160 243.283,107.600 243.600 C 108.040 243.917,108.400 244.434,108.400 244.748 C 108.400 245.576,110.429 249.600,110.847 249.600 C 111.041 249.600,111.200 249.960,111.200 250.400 C 111.200 250.840,111.380 251.200,111.600 251.200 C 111.820 251.200,112.000 251.560,112.000 252.000 C 112.000 252.440,112.180 252.800,112.400 252.800 C 112.620 252.800,112.800 253.036,112.800 253.325 C 112.800 253.613,113.160 254.236,113.600 254.708 C 114.040 255.180,114.400 255.844,114.400 256.183 C 114.400 256.522,114.580 256.800,114.800 256.800 C 115.020 256.800,115.200 257.068,115.200 257.397 C 115.200 257.725,115.560 258.218,116.000 258.493 C 116.440 258.768,116.800 259.309,116.800 259.696 C 116.800 260.133,117.103 260.400,117.600 260.400 C 118.040 260.400,118.400 260.580,118.400 260.800 C 118.400 261.020,118.940 261.200,119.600 261.200 C 120.260 261.200,120.800 261.380,120.800 261.600 C 120.800 261.841,122.467 262.000,125.000 262.000 C 127.533 262.000,129.200 261.841,129.200 261.600 C 129.200 261.380,129.663 261.200,130.229 261.200 C 131.872 261.200,132.400 260.332,132.400 257.629 C 132.400 256.276,132.223 255.200,132.000 255.200 C 131.780 255.200,131.600 254.840,131.600 254.400 C 131.600 253.960,131.420 253.600,131.200 253.600 C 130.980 253.600,130.800 253.280,130.800 252.888 C 130.800 252.497,130.440 251.917,130.000 251.600 C 129.560 251.283,129.200 250.703,129.200 250.312 C 129.200 249.920,129.020 249.600,128.800 249.600 C 128.580 249.600,128.400 249.280,128.400 248.888 C 128.400 248.497,128.040 247.917,127.600 247.600 C 127.160 247.283,126.800 246.703,126.800 246.312 C 126.800 245.920,126.620 245.600,126.400 245.600 C 126.180 245.600,126.000 245.240,126.000 244.800 C 126.000 244.360,125.840 244.000,125.643 244.000 C 125.447 244.000,125.174 243.550,125.036 243.000 C 124.898 242.450,124.608 242.000,124.392 242.000 C 124.177 242.000,124.000 241.640,124.000 241.200 C 124.000 240.760,123.820 240.400,123.600 240.400 C 123.380 240.400,123.200 240.164,123.200 239.875 C 123.200 239.587,122.840 238.964,122.400 238.492 C 121.960 238.020,121.600 237.356,121.600 237.017 C 121.600 236.678,121.420 236.400,121.200 236.400 C 120.980 236.400,120.800 236.040,120.800 235.600 C 120.800 235.160,120.620 234.800,120.400 234.800 C 120.180 234.800,120.000 234.480,120.000 234.088 C 120.000 233.697,119.640 233.117,119.200 232.800 C 118.760 232.483,118.400 231.903,118.400 231.512 C 118.400 231.120,118.220 230.800,118.000 230.800 C 117.780 230.800,117.600 230.480,117.600 230.088 C 117.600 229.697,117.240 229.117,116.800 228.800 C 116.360 228.483,116.000 227.903,116.000 227.512 C 116.000 227.120,115.820 226.800,115.600 226.800 C 115.380 226.800,115.200 226.530,115.200 226.200 C 115.200 225.870,115.020 225.600,114.800 225.600 C 114.580 225.600,114.400 225.280,114.400 224.888 C 114.400 224.497,114.040 223.917,113.600 223.600 C 113.160 223.283,112.800 222.703,112.800 222.312 C 112.800 221.920,112.620 221.600,112.400 221.600 C 112.180 221.600,112.000 221.280,112.000 220.888 C 112.000 220.497,111.640 219.917,111.200 219.600 C 110.760 219.283,110.400 218.703,110.400 218.312 C 110.400 217.920,110.220 217.600,110.000 217.600 C 109.780 217.600,109.600 217.240,109.600 216.800 C 109.600 216.360,109.420 216.000,109.200 216.000 C 108.980 216.000,108.800 215.651,108.800 215.224 C 108.800 214.797,108.632 214.343,108.426 214.216 C 108.220 214.089,107.553 212.953,106.944 211.692 C 106.335 210.432,105.514 209.109,105.119 208.753 C 104.723 208.397,104.400 207.812,104.400 207.453 C 104.400 207.094,104.220 206.800,104.000 206.800 C 103.780 206.800,103.600 206.480,103.600 206.088 C 103.600 205.697,103.240 205.117,102.800 204.800 C 102.360 204.483,102.000 203.903,102.000 203.512 C 102.000 203.120,101.820 202.800,101.600 202.800 C 101.380 202.800,101.200 202.440,101.200 202.000 C 101.200 201.560,101.020 201.200,100.800 201.200 C 100.580 201.200,100.400 200.880,100.400 200.488 C 100.400 200.097,100.040 199.517,99.600 199.200 C 99.160 198.883,98.800 198.303,98.800 197.912 C 98.800 197.520,98.620 197.200,98.400 197.200 C 98.180 197.200,98.000 196.880,98.000 196.488 C 98.000 196.097,97.640 195.517,97.200 195.200 C 96.760 194.883,96.400 194.303,96.400 193.912 C 96.400 193.520,96.220 193.200,96.000 193.200 C 95.780 193.200,95.600 192.930,95.600 192.600 C 95.600 192.270,95.420 192.000,95.200 192.000 C 94.439 192.000,94.767 189.628,95.600 189.107 C 96.040 188.832,96.400 188.367,96.400 188.072 C 96.400 187.778,97.120 186.846,98.000 186.000 C 98.880 185.154,99.600 184.257,99.600 184.005 C 99.600 183.754,100.500 182.671,101.600 181.600 C 102.700 180.529,103.600 179.442,103.600 179.186 C 103.600 178.930,104.096 178.244,104.701 177.660 C 105.307 177.077,106.275 175.970,106.853 175.200 C 107.431 174.430,108.465 173.217,109.152 172.504 C 109.838 171.791,110.400 171.014,110.400 170.778 C 110.400 170.541,111.300 169.471,112.400 168.400 C 113.500 167.329,114.400 166.246,114.400 165.995 C 114.400 165.743,115.120 164.846,116.000 164.000 C 116.880 163.154,117.600 162.257,117.600 162.005 C 117.600 161.754,118.500 160.671,119.600 159.600 C 120.700 158.529,121.600 157.538,121.600 157.399 C 121.600 157.260,122.226 156.484,122.992 155.673 C 123.757 154.863,124.589 153.705,124.840 153.100 C 125.092 152.495,125.455 152.000,125.649 152.000 C 126.210 152.000,126.064 147.601,125.485 147.071 C 124.209 145.905,123.036 145.600,119.829 145.600 C 117.969 145.600,116.336 145.780,116.200 146.000 C 116.064 146.220,115.243 146.400,114.376 146.400 C 113.509 146.400,112.800 146.580,112.800 146.800 C 112.800 147.020,112.552 147.200,112.248 147.200 C 111.945 147.200,111.044 147.875,110.246 148.700 C 106.204 152.879,105.200 154.016,105.200 154.415 C 105.200 154.656,104.300 155.729,103.200 156.800 C 102.100 157.871,101.200 158.850,101.200 158.974 C 101.200 159.098,100.480 159.941,99.600 160.848 C 98.720 161.755,98.000 162.654,98.000 162.846 C 98.000 163.039,97.100 164.115,96.000 165.239 C 94.900 166.362,94.000 167.451,94.000 167.659 C 94.000 167.866,93.595 168.476,93.100 169.014 C 90.723 171.596,90.400 172.002,90.400 172.412 C 90.400 172.654,89.500 173.729,88.400 174.800 C 87.300 175.871,86.400 176.861,86.400 177.000 C 86.400 177.139,85.500 178.129,84.400 179.200 C 83.300 180.271,82.400 181.351,82.400 181.600 C 82.400 181.849,81.500 182.929,80.400 184.000 C 79.300 185.071,78.400 186.146,78.400 186.387 C 78.400 186.629,77.815 187.441,77.100 188.192 C 75.335 190.045,74.800 190.713,74.800 191.063 C 74.800 191.226,73.900 192.204,72.800 193.237 C 71.700 194.270,70.800 195.326,70.800 195.583 C 70.800 195.841,69.900 196.929,68.800 198.000 C 67.700 199.071,66.800 200.153,66.800 200.403 C 66.800 200.873,65.832 202.000,65.429 202.000 C 65.303 202.000,65.200 190.390,65.200 176.200 C 65.200 159.267,65.063 150.400,64.800 150.400 C 64.580 150.400,64.400 150.124,64.400 149.787 C 64.400 148.558,61.733 146.400,60.213 146.400 C 59.436 146.400,58.800 146.220,58.800 146.000 C 58.800 145.780,58.170 145.600,57.400 145.600 C 56.630 145.600,56.000 145.780,56.000 146.000 M312.000 174.342 C 312.000 174.530,310.828 174.794,309.395 174.928 C 306.826 175.167,301.526 176.714,301.267 177.299 C 301.193 177.465,300.608 177.600,299.967 177.600 C 299.325 177.600,298.800 177.780,298.800 178.000 C 298.800 178.220,298.440 178.400,298.000 178.400 C 297.560 178.400,297.200 178.580,297.200 178.800 C 297.200 179.020,296.840 179.200,296.400 179.200 C 295.960 179.200,295.600 179.380,295.600 179.600 C 295.600 179.820,295.240 180.000,294.800 180.000 C 294.360 180.000,294.000 180.146,294.000 180.325 C 294.000 180.504,293.370 180.898,292.600 181.200 C 291.830 181.502,291.200 181.896,291.200 182.075 C 291.200 182.254,290.917 182.400,290.571 182.400 C 289.763 182.400,288.800 183.363,288.800 184.171 C 288.800 184.517,288.620 184.800,288.400 184.800 C 288.180 184.800,288.000 185.700,288.000 186.800 C 288.000 187.900,288.180 188.800,288.400 188.800 C 288.620 188.800,288.800 189.160,288.800 189.600 C 288.800 190.040,288.980 190.400,289.200 190.400 C 289.420 190.400,289.600 190.588,289.600 190.818 C 289.600 191.460,291.486 193.200,292.182 193.200 C 292.522 193.200,292.800 193.380,292.800 193.600 C 292.800 193.820,293.430 194.000,294.200 194.000 C 294.970 194.000,295.600 193.820,295.600 193.600 C 295.600 193.380,296.140 193.200,296.800 193.200 C 297.460 193.200,298.000 193.020,298.000 192.800 C 298.000 192.580,298.360 192.400,298.800 192.400 C 299.240 192.400,299.600 192.220,299.600 192.000 C 299.600 191.780,299.915 191.599,300.300 191.598 C 300.685 191.597,301.886 191.147,302.968 190.598 C 304.050 190.049,305.254 189.600,305.644 189.600 C 306.034 189.600,306.464 189.420,306.600 189.200 C 306.736 188.980,307.287 188.800,307.824 188.800 C 308.361 188.800,308.800 188.620,308.800 188.400 C 308.800 188.180,309.520 188.000,310.400 188.000 C 311.280 188.000,312.000 187.820,312.000 187.600 C 312.000 187.352,314.133 187.200,317.600 187.200 C 321.067 187.200,323.200 187.352,323.200 187.600 C 323.200 187.820,323.740 188.000,324.400 188.000 C 325.060 188.000,325.600 188.138,325.600 188.306 C 325.600 188.474,326.275 188.916,327.100 189.289 C 328.976 190.137,331.600 192.511,331.600 193.361 C 331.600 193.712,331.780 194.000,332.000 194.000 C 332.220 194.000,332.400 194.360,332.400 194.800 C 332.400 195.240,332.580 195.600,332.800 195.600 C 333.020 195.600,333.200 195.960,333.200 196.400 C 333.200 196.840,333.380 197.200,333.600 197.200 C 333.820 197.200,334.000 197.920,334.000 198.800 C 334.000 199.680,334.180 200.400,334.400 200.400 C 334.633 200.400,334.800 201.733,334.800 203.600 L 334.800 206.800 333.600 206.800 C 332.940 206.800,332.400 206.980,332.400 207.200 C 332.400 207.429,331.200 207.600,329.600 207.600 C 328.060 207.600,326.800 207.755,326.800 207.945 C 326.800 208.135,325.047 208.419,322.903 208.576 C 320.760 208.734,318.825 209.008,318.603 209.186 C 318.382 209.364,317.435 209.620,316.500 209.755 C 312.214 210.373,311.581 210.507,311.374 210.842 C 311.252 211.039,310.724 211.200,310.200 211.200 C 309.676 211.200,309.136 211.380,309.000 211.600 C 308.864 211.820,308.133 212.000,307.376 212.000 C 306.619 212.000,306.000 212.180,306.000 212.400 C 306.000 212.620,305.640 212.800,305.200 212.800 C 304.760 212.800,304.400 212.980,304.400 213.200 C 304.400 213.420,303.860 213.600,303.200 213.600 C 302.540 213.600,302.000 213.780,302.000 214.000 C 302.000 214.220,301.640 214.400,301.200 214.400 C 300.760 214.400,300.400 214.580,300.400 214.800 C 300.400 215.020,299.900 215.200,299.288 215.200 C 298.635 215.200,297.939 215.530,297.600 216.000 C 297.283 216.440,296.703 216.800,296.312 216.800 C 295.920 216.800,295.600 216.980,295.600 217.200 C 295.600 217.420,295.280 217.600,294.888 217.600 C 294.497 217.600,293.917 217.960,293.600 218.400 C 293.283 218.840,292.880 219.200,292.704 219.200 C 292.280 219.200,287.200 224.292,287.200 224.717 C 287.200 224.900,286.885 225.407,286.500 225.845 C 285.431 227.060,284.800 228.304,284.800 229.195 C 284.800 229.638,284.620 230.000,284.400 230.000 C 284.180 230.000,284.000 230.540,284.000 231.200 C 284.000 231.860,283.820 232.400,283.600 232.400 C 283.349 232.400,283.200 234.867,283.200 239.000 C 283.200 243.133,283.349 245.600,283.600 245.600 C 283.820 245.600,284.000 246.320,284.000 247.200 C 284.000 248.080,284.180 248.800,284.400 248.800 C 284.620 248.800,284.800 249.160,284.800 249.600 C 284.800 250.040,284.980 250.400,285.200 250.400 C 285.420 250.400,285.600 250.760,285.600 251.200 C 285.600 251.640,285.780 252.000,286.000 252.000 C 286.220 252.000,286.400 252.360,286.400 252.800 C 286.400 253.240,286.580 253.600,286.800 253.600 C 287.020 253.600,287.200 253.861,287.200 254.181 C 287.200 254.886,291.039 258.800,291.731 258.800 C 292.002 258.800,292.483 259.160,292.800 259.600 C 293.117 260.040,293.697 260.400,294.088 260.400 C 294.480 260.400,294.800 260.580,294.800 260.800 C 294.800 261.020,295.160 261.200,295.600 261.200 C 296.040 261.200,296.400 261.380,296.400 261.600 C 296.400 261.820,296.940 262.000,297.600 262.000 C 298.260 262.000,298.800 262.180,298.800 262.400 C 298.800 262.620,299.520 262.800,300.400 262.800 C 301.280 262.800,302.000 262.980,302.000 263.200 C 302.000 263.449,304.333 263.600,308.200 263.600 C 312.067 263.600,314.400 263.449,314.400 263.200 C 314.400 262.980,315.300 262.800,316.400 262.800 C 317.500 262.800,318.400 262.620,318.400 262.400 C 318.400 262.180,318.940 262.000,319.600 262.000 C 320.260 262.000,320.800 261.820,320.800 261.600 C 320.800 261.380,321.160 261.200,321.600 261.200 C 322.040 261.200,322.400 261.020,322.400 260.800 C 322.400 260.580,322.762 260.400,323.205 260.400 C 324.046 260.400,325.383 259.755,326.313 258.900 C 326.612 258.625,327.204 258.400,327.629 258.400 C 328.053 258.400,328.400 258.220,328.400 258.000 C 328.400 257.780,328.636 257.600,328.925 257.600 C 329.213 257.600,329.836 257.240,330.308 256.800 C 330.780 256.360,331.378 256.000,331.636 256.000 C 331.895 256.000,332.397 255.684,332.753 255.297 C 333.109 254.911,333.895 254.340,334.500 254.030 C 335.105 253.719,335.600 253.315,335.600 253.132 C 335.600 252.950,335.780 252.800,336.000 252.800 C 336.220 252.800,336.400 253.160,336.400 253.600 C 336.400 254.040,336.580 254.400,336.800 254.400 C 337.020 254.400,337.200 255.300,337.200 256.400 C 337.200 257.500,337.380 258.400,337.600 258.400 C 337.820 258.400,338.000 258.588,338.000 258.818 C 338.000 259.716,339.982 261.200,341.182 261.200 C 341.852 261.200,342.400 261.380,342.400 261.600 C 342.400 261.820,343.120 262.000,344.000 262.000 C 344.880 262.000,345.600 261.820,345.600 261.600 C 345.600 261.380,346.140 261.200,346.800 261.200 C 347.460 261.200,348.000 261.020,348.000 260.800 C 348.000 260.580,348.360 260.400,348.800 260.400 C 349.333 260.400,349.600 260.133,349.600 259.600 C 349.600 259.160,349.780 258.800,350.000 258.800 C 350.263 258.800,350.400 248.667,350.400 229.200 C 350.400 209.733,350.263 199.600,350.000 199.600 C 349.780 199.600,349.600 198.621,349.600 197.424 C 349.600 196.227,349.420 195.136,349.200 195.000 C 348.980 194.864,348.800 194.223,348.800 193.576 C 348.800 192.929,348.620 192.400,348.400 192.400 C 348.180 192.400,348.000 191.950,348.000 191.400 C 348.000 190.850,347.820 190.400,347.600 190.400 C 347.380 190.400,347.200 189.900,347.200 189.288 C 347.200 188.635,346.870 187.939,346.400 187.600 C 345.960 187.283,345.600 186.703,345.600 186.312 C 345.600 185.920,345.420 185.600,345.200 185.600 C 344.980 185.600,344.800 185.312,344.800 184.960 C 344.800 184.609,344.260 183.817,343.600 183.200 C 342.940 182.583,342.400 181.868,342.400 181.611 C 342.400 181.128,341.437 180.000,341.025 180.000 C 340.897 180.000,340.228 179.460,339.537 178.800 C 338.846 178.140,338.038 177.600,337.741 177.600 C 337.443 177.600,337.200 177.420,337.200 177.200 C 337.200 176.980,336.840 176.800,336.400 176.800 C 335.960 176.800,335.600 176.620,335.600 176.400 C 335.600 176.180,335.351 176.000,335.046 176.000 C 334.741 176.000,333.976 175.731,333.346 175.402 C 332.716 175.074,331.525 174.804,330.700 174.802 C 329.875 174.801,329.200 174.620,329.200 174.400 C 329.200 174.146,326.067 174.000,320.600 174.000 C 315.870 174.000,312.000 174.154,312.000 174.342 M154.623 175.562 C 154.475 175.803,153.643 176.000,152.776 176.000 C 151.909 176.000,151.200 176.137,151.200 176.305 C 151.200 176.473,150.795 176.788,150.300 177.005 C 149.805 177.222,149.222 177.805,149.005 178.300 C 148.788 178.795,148.473 179.200,148.305 179.200 C 148.137 179.200,148.000 192.790,148.000 209.400 C 148.000 229.267,148.137 239.600,148.400 239.600 C 148.620 239.600,148.800 240.590,148.800 241.800 C 148.800 243.010,148.980 244.000,149.200 244.000 C 149.420 244.000,149.600 244.540,149.600 245.200 C 149.600 245.860,149.780 246.400,150.000 246.400 C 150.220 246.400,150.400 246.940,150.400 247.600 C 150.400 248.260,150.580 248.800,150.800 248.800 C 151.020 248.800,151.200 249.340,151.200 250.000 C 151.200 250.660,151.380 251.200,151.600 251.200 C 151.820 251.200,152.000 251.520,152.000 251.912 C 152.000 252.303,152.360 252.883,152.800 253.200 C 153.240 253.517,153.600 254.019,153.600 254.314 C 153.600 254.945,158.356 259.600,159.000 259.600 C 159.128 259.600,159.620 259.960,160.092 260.400 C 160.564 260.840,161.187 261.200,161.475 261.200 C 161.764 261.200,162.000 261.380,162.000 261.600 C 162.000 261.820,162.540 262.000,163.200 262.000 C 163.860 262.000,164.400 262.180,164.400 262.400 C 164.400 262.620,165.120 262.800,166.000 262.800 C 166.880 262.800,167.600 262.980,167.600 263.200 C 167.600 263.451,170.067 263.600,174.200 263.600 C 178.333 263.600,180.800 263.451,180.800 263.200 C 180.800 262.980,181.520 262.800,182.400 262.800 C 183.280 262.800,184.000 262.620,184.000 262.400 C 184.000 262.180,184.540 262.000,185.200 262.000 C 185.860 262.000,186.400 261.820,186.400 261.600 C 186.400 261.380,186.760 261.200,187.200 261.200 C 187.640 261.200,188.000 261.020,188.000 260.800 C 188.000 260.580,188.360 260.400,188.800 260.400 C 189.240 260.400,189.600 260.220,189.600 260.000 C 189.600 259.780,189.941 259.600,190.357 259.600 C 190.774 259.600,191.218 259.330,191.345 259.000 C 191.471 258.670,191.868 258.400,192.227 258.400 C 192.586 258.400,193.383 257.860,194.000 257.200 C 194.617 256.540,195.305 256.000,195.530 256.000 C 195.755 256.000,197.214 254.740,198.772 253.200 C 202.534 249.483,202.800 249.521,202.800 253.776 C 202.800 255.633,202.980 257.264,203.200 257.400 C 203.420 257.536,203.600 258.009,203.600 258.452 C 203.600 259.414,204.497 260.400,205.371 260.400 C 205.717 260.400,206.000 260.580,206.000 260.800 C 206.000 261.020,206.540 261.200,207.200 261.200 C 207.860 261.200,208.400 261.380,208.400 261.600 C 208.400 261.820,209.030 262.000,209.800 262.000 C 210.570 262.000,211.200 261.820,211.200 261.600 C 211.200 261.380,211.740 261.200,212.400 261.200 C 213.060 261.200,213.600 261.020,213.600 260.800 C 213.600 260.580,213.960 260.400,214.400 260.400 C 214.933 260.400,215.200 260.133,215.200 259.600 C 215.200 259.160,215.380 258.800,215.600 258.800 C 215.820 258.800,216.000 258.350,216.000 257.800 C 216.000 257.250,216.180 256.800,216.400 256.800 C 216.664 256.800,216.800 244.000,216.800 219.200 C 216.800 194.400,216.664 181.600,216.400 181.600 C 216.180 181.600,216.000 180.997,216.000 180.259 C 216.000 178.650,214.185 176.537,212.505 176.189 C 211.897 176.063,210.720 175.759,209.888 175.512 C 208.751 175.175,208.260 175.180,207.908 175.532 C 207.651 175.789,206.756 176.000,205.920 176.000 C 205.084 176.000,204.400 176.180,204.400 176.400 C 204.400 176.620,204.055 176.800,203.634 176.800 C 203.167 176.800,202.659 177.269,202.336 178.000 C 202.044 178.660,201.669 179.200,201.502 179.200 C 201.336 179.200,201.200 191.990,201.200 207.623 L 201.200 236.046 196.344 240.823 C 193.673 243.450,191.283 245.600,191.032 245.600 C 190.782 245.600,190.317 245.960,190.000 246.400 C 189.683 246.840,189.103 247.200,188.712 247.200 C 188.320 247.200,188.000 247.380,188.000 247.600 C 188.000 247.820,187.640 248.000,187.200 248.000 C 186.760 248.000,186.400 248.180,186.400 248.400 C 186.400 248.620,185.860 248.800,185.200 248.800 C 184.540 248.800,184.000 248.980,184.000 249.200 C 184.000 249.420,183.100 249.600,182.000 249.600 C 180.900 249.600,180.000 249.780,180.000 250.000 C 180.000 250.220,179.460 250.400,178.800 250.400 C 178.140 250.400,177.600 250.220,177.600 250.000 C 177.600 249.780,176.610 249.600,175.400 249.600 C 174.190 249.600,173.200 249.420,173.200 249.200 C 173.200 248.980,172.840 248.800,172.400 248.800 C 171.960 248.800,171.600 248.620,171.600 248.400 C 171.600 248.180,171.325 248.000,170.989 248.000 C 170.151 248.000,167.063 244.844,166.371 243.279 C 166.059 242.576,165.669 242.000,165.502 242.000 C 165.336 242.000,165.200 241.460,165.200 240.800 C 165.200 240.140,165.020 239.600,164.800 239.600 C 164.580 239.600,164.400 238.700,164.400 237.600 C 164.400 236.500,164.220 235.600,164.000 235.600 C 163.737 235.600,163.600 226.333,163.600 208.600 C 163.600 190.867,163.463 181.600,163.200 181.600 C 162.980 181.600,162.800 180.949,162.800 180.154 C 162.800 178.322,160.683 176.218,158.476 175.857 C 157.664 175.725,156.526 175.505,155.947 175.370 C 155.350 175.231,154.777 175.314,154.623 175.562 M334.800 228.840 L 334.800 240.079 333.500 241.241 C 331.559 242.975,331.263 243.200,330.917 243.202 C 330.743 243.203,330.060 243.698,329.400 244.302 C 328.740 244.906,327.705 245.655,327.100 245.968 C 326.495 246.280,326.000 246.685,326.000 246.868 C 326.000 247.050,325.730 247.200,325.400 247.200 C 325.070 247.200,324.800 247.380,324.800 247.600 C 324.800 247.820,324.440 248.000,324.000 248.000 C 323.560 248.000,323.200 248.180,323.200 248.400 C 323.200 248.620,322.660 248.800,322.000 248.800 C 321.340 248.800,320.800 248.980,320.800 249.200 C 320.800 249.420,320.440 249.600,320.000 249.600 C 319.560 249.600,319.200 249.780,319.200 250.000 C 319.200 250.222,318.133 250.400,316.800 250.400 C 315.467 250.400,314.400 250.578,314.400 250.800 C 314.400 251.022,313.333 251.200,312.000 251.200 C 310.667 251.200,309.600 251.022,309.600 250.800 C 309.600 250.580,308.981 250.400,308.224 250.400 C 307.467 250.400,306.736 250.220,306.600 250.000 C 306.464 249.780,305.953 249.600,305.465 249.600 C 304.976 249.600,304.317 249.240,304.000 248.800 C 303.683 248.360,303.180 248.000,302.883 248.000 C 302.219 248.000,301.577 247.343,300.832 245.900 C 300.520 245.295,300.115 244.800,299.932 244.800 C 299.750 244.800,299.600 244.440,299.600 244.000 C 299.600 243.560,299.420 243.200,299.200 243.200 C 298.980 243.200,298.800 242.570,298.800 241.800 C 298.800 241.030,298.620 240.400,298.400 240.400 C 298.180 240.400,298.000 239.680,298.000 238.800 C 298.000 237.920,298.180 237.200,298.400 237.200 C 298.620 237.200,298.800 236.480,298.800 235.600 C 298.800 234.720,298.980 234.000,299.200 234.000 C 299.420 234.000,299.600 233.500,299.600 232.888 C 299.600 232.235,299.930 231.539,300.400 231.200 C 300.840 230.883,301.200 230.387,301.200 230.098 C 301.200 229.416,303.816 226.800,304.498 226.800 C 304.787 226.800,305.278 226.447,305.589 226.015 C 305.901 225.583,306.658 225.119,307.273 224.984 C 307.888 224.849,308.494 224.572,308.619 224.369 C 308.745 224.166,309.197 224.000,309.624 224.000 C 310.051 224.000,310.400 223.820,310.400 223.600 C 310.400 223.380,310.760 223.200,311.200 223.200 C 311.640 223.200,312.000 223.020,312.000 222.800 C 312.000 222.580,312.540 222.400,313.200 222.400 C 313.860 222.400,314.400 222.220,314.400 222.000 C 314.400 221.780,314.940 221.600,315.600 221.600 C 316.260 221.600,316.800 221.420,316.800 221.200 C 316.800 220.980,317.520 220.800,318.400 220.800 C 319.280 220.800,320.000 220.620,320.000 220.400 C 320.000 220.180,320.810 220.000,321.800 220.000 C 322.790 220.000,323.600 219.820,323.600 219.600 C 323.600 219.380,324.500 219.200,325.600 219.200 C 326.700 219.200,327.600 219.020,327.600 218.800 C 327.600 218.578,328.667 218.400,330.000 218.400 C 331.333 218.400,332.400 218.222,332.400 218.000 C 332.400 217.780,332.940 217.600,333.600 217.600 L 334.800 217.600 334.800 228.840 " stroke="none" fill="#049cfc" fill-rule="evenodd"></path><path id="path1" d="" stroke="none" fill="#089cfc" fill-rule="evenodd"></path></g></svg>